<?xml version="1.0" encoding="utf-8"?>
<!-- Generator: Adobe Illustrator 23.0.5, SVG Export Plug-In . SVG Version: 6.00 Build 0)  -->
<svg version="1.1" id="Layer_1" xmlns="http://www.w3.org/2000/svg" xmlns:xlink="http://www.w3.org/1999/xlink" x="0px" y="0px"
	 viewBox="0 0 360 360" style="enable-background:new 0 0 360 360;" xml:space="preserve">
<g>
	<path d="M93.2,175.3H82.3c-0.9,0-1.7,0-2.5-0.1c-1.7,0.8-2.6,1.8-2.6,2.9s0.6,2,1.8,2.6c1.2,0.6,3.7,0.9,7.6,0.9
		c6.6,0,9.9-1.3,9.9-4C96.5,176.1,95.4,175.3,93.2,175.3z"/>
	<path d="M125.1,118.2c-2,0-3.1,2.3-3.1,6.9v38c0,4.6,0.9,6.9,2.8,6.9c2.1,0,3.1-2.3,3.1-6.9v-39.3C127.9,120,127,118.2,125.1,118.2
		z"/>
	<path d="M180,0C80.6,0,0,80.6,0,180c0,99.4,80.6,180,180,180c99.4,0,180-80.6,180-180C360,80.6,279.4,0,180,0z M331.6,166.9
		c2.3-1.1,4.5-1.6,6.7-1.6c3,0,4.4,1.2,4.4,3.5c0,1.8-1,3.4-3,4.6c-2,1.3-4.2,1.9-6.7,1.9c-3.2,0-4.9-1.3-4.9-3.8
		C328.2,169.5,329.4,168,331.6,166.9z M239.4,101.6c2.3-1.1,4.5-1.6,6.7-1.6c3,0,4.4,1.2,4.4,3.5c0,1.8-1,3.4-3,4.6
		c-2,1.3-4.2,1.9-6.7,1.9c-3.2,0-4.9-1.3-4.9-3.8C236,104.2,237.1,102.7,239.4,101.6z M205.8,174.6l0.3-1.2l11.4-54.4h-1.9
		c-0.8,0-1.4,0.3-1.8,0.8c-0.4,0.6-1,2.1-1.7,4.6c-0.7,2.5-1.3,4-1.8,4.5c-0.5,0.5-1.4,0.8-2.7,0.8c-1,0-1.6-0.3-1.6-1
		c0-0.2,0-0.5,0.1-1l1.7-12.8c0.1-1,0.3-1.6,0.5-1.8c0.2-0.2,0.7-0.3,1.6-0.3h21.3c0.4,0,0.5,0.2,0.5,0.5c0,0.2-0.1,0.6-0.3,1.4
		l-0.1,0.7l-11.5,53.8h1.5c1.3,0,2.2-0.3,2.7-1c0.5-0.7,1.1-2.3,1.7-4.9c0.4-1.9,0.9-3.2,1.3-3.9c0.4-0.7,1.5-1,3.4-1
		c0.8,0,1.2,0.3,1.2,1c0,0.2-0.1,1.1-0.3,2.7l-1.3,9.9c-0.2,1.8-0.4,2.8-0.5,2.9c-0.1,0.1-0.6,0.2-1.5,0.2h-20.7l-1.1,0
		c-0.3,0-0.5-0.1-0.5-0.4C205.7,174.9,205.8,174.8,205.8,174.6z M172.1,120.5c3.2-5.4,7.3-8.1,12.5-8.1c4.9,0,9,2.6,12.3,7.7
		c3.3,5.1,5,12.8,5,22.9c0,10.9-1.7,19.2-5,24.7c-3.4,5.6-7.5,8.4-12.5,8.4c-3.5,0-6.5-1.3-9-3.8c-2.5-2.6-4.5-6-5.9-10.2
		c-1.4-4.3-2.1-10.1-2.1-17.5C167.4,133.9,169,125.9,172.1,120.5z M66.3,107.1c-0.2,0.5-0.7,0.9-1.4,1.3c-0.7,0.4-1.1,0.8-1.3,1.2
		c-0.2,0.4-0.3,1.1-0.3,2.1V166c0,0.8,0.1,1.4,0.2,1.7c0.2,0.4,0.6,0.7,1.3,1.1c1,0.5,1.5,1.3,1.5,2.2c0,2.4-0.1,3.7-0.2,4
		c-0.1,0.3-0.6,0.4-1.4,0.4H47.2c-0.8,0-1.1-0.7-1.1-2.2c0-1.3,0-2.2,0.1-2.9c0.1-0.6,0.6-1.1,1.5-1.5c1-0.5,1.5-1.3,1.5-2.4v-38.5
		L42.1,159h-4.3l-7-30.1v37.4c0,1.2,0.5,2.1,1.4,2.7c1.2,0.7,1.7,1.9,1.7,3.6c0,1.9-0.6,2.9-1.7,2.9h-8.5c-1,0-1.5-0.9-1.5-2.8
		c0-1.3,0.4-2.3,1.2-3c0.6-0.6,1-1,1.1-1.4c0.2-0.4,0.2-1,0.2-1.9v-52.8c0-1.5-0.1-2.6-0.3-3.4c-0.2-0.8-0.7-1.4-1.4-1.9
		c-0.8-0.5-1.2-1-1.2-1.5l0-2c0-1.4,0.1-2.3,0.3-2.7c0.1-0.4,0.5-0.5,1-0.5h14.5l6.3,28.2l6.4-28.2h13.9c0.9,0,1.6,0.2,1.8,0.5
		c0.3,0.3,0.4,1.1,0.4,2.4C66.6,105.8,66.5,106.6,66.3,107.1z M85.7,186.7c-4.8,0-8.7-0.6-11.7-1.7c-2.9-1.1-4.4-2.9-4.4-5.3
		c0-1.3,0.3-2.3,0.9-3.1c0.6-0.7,1.7-1.6,3.2-2.4c0.2-0.1,0.5-0.3,0.9-0.5c-3.6-1.8-5.4-4.9-5.4-9.1c0-4.8,2.6-8.4,7.7-10.7
		c-4.8-4.4-7.3-10.5-7.3-18.1c0-6.8,1.6-12.4,4.9-16.8c3.3-4.4,7.3-6.6,12-6.6c1.3,0,3,0.2,5,0.7c0.9-1,1.3-1.8,1.3-2.4
		c0-0.8-0.5-1.6-1.6-2.3c-1.4-1-2.1-2.2-2.1-3.6c0-2.8,1.7-4.3,5-4.3c2,0,3.5,0.5,4.5,1.5c0.9,1,1.4,2.2,1.4,3.6
		c0,2.7-1.7,5.8-5.1,9.5c5.8,4.8,8.7,11.3,8.7,19.6c0,7.1-1.7,12.7-5,16.9c-3.3,4.1-7.2,6.2-11.6,6.2c-1.4,0-2.9-0.3-4.5-0.8
		c-0.9-0.2-1.6-0.4-2-0.4c-0.8,0-1.7,0.4-2.7,1.1c-0.9,0.7-1.4,1.5-1.4,2.4c0,1.5,1.4,2.2,4.3,2.2h10.7c3.8,0,7,0.9,9.4,2.7
		c2.4,1.8,3.7,4.8,3.7,8.8C104.6,182.4,98.3,186.7,85.7,186.7z M137.4,167.7c-3.4,5.6-7.5,8.4-12.5,8.4c-3.5,0-6.5-1.3-9-3.8
		c-2.5-2.6-4.5-6-5.9-10.2c-1.4-4.3-2.1-10.1-2.1-17.5c0-10.6,1.6-18.6,4.7-24c3.2-5.4,7.3-8.1,12.5-8.1c4.9,0,9,2.6,12.3,7.7
		c3.3,5.1,5,12.8,5,22.9C142.4,153.8,140.7,162.1,137.4,167.7z M147.4,175.4c-0.8,0-1.2-0.5-1.2-1.4v-2.6c0-1.1,0.4-1.9,1.2-2.4
		c0.5-0.3,0.9-0.6,1-0.8c0.1-0.3,0.2-0.8,0.2-1.5v-56.6c0-1.1-0.4-1.8-1.1-2.1c-0.9-0.5-1.3-1.4-1.3-2.5v-2.3c0-1,0.5-1.5,1.7-1.5
		H160c0.7,0,1.1,0.1,1.3,0.2c0.2,0.1,0.3,0.6,0.3,1.6v63.8c0,1.4,0.4,2.3,1.2,2.6c0.6,0.2,0.8,0.8,0.8,1.6v2.6
		c0,0.9-0.6,1.4-1.8,1.4H147.4z M196.9,225.4c-0.6,4.5-2,8.2-4,11c-2.1,2.9-4.5,4.3-7.2,4.3c-3.3,0-6-2.1-8.3-6.3v10.2
		c0,1,0.5,1.8,1.5,2.1c1,0.4,1.5,1.1,1.5,2.2v1.6c0,0.6-0.1,1-0.2,1.2c-0.1,0.1-0.5,0.2-1.1,0.2h-15.1c-1,0-1.6-0.3-1.6-0.9v-1.7
		c0-1.1,0.4-2,1.3-2.6c0.4-0.3,0.7-0.8,0.7-1.5v-59.1c0-1.1-0.3-2-1-2.6c-0.5-0.4-0.8-0.7-0.8-0.9c-0.1-0.2-0.1-0.7-0.1-1.3V180
		c0-0.8,0.1-1.3,0.2-1.5c0.1-0.2,0.5-0.2,1.2-0.2h12c0.8,0,1.2,0.1,1.4,0.3c0.2,0.2,0.3,0.8,0.3,1.6v2.5c1.5-1.7,3-3,4.2-3.8
		c1.3-0.9,2.8-1.3,4.6-1.3c4,0,7,2.4,8.9,7.3c1.9,4.9,2.8,12.6,2.8,23.3C197.8,215.2,197.5,220.9,196.9,225.4z M233.9,208.6h-17.6
		v18.7c0,2.5,0.4,4.4,1.2,5.8c0.8,1.4,1.9,2.1,3.2,2.1c2,0,3.6-1,4.8-2.9c1.2-2,1.8-4.7,1.9-8.1c0-1.8,0.2-2.9,0.5-3.3
		c0.3-0.4,1.2-0.5,2.8-0.5c1.4,0,2.3,0.2,2.7,0.5s0.6,1.2,0.6,2.5c0,4.7-1.3,8.9-3.9,12.5c-2.6,3.7-6.1,5.5-10.4,5.5
		c-5,0-9.2-2.6-12.6-7.8c-3.5-5.2-5.2-13.1-5.2-23.6s1.6-18.5,4.8-24c3.2-5.5,7.4-8.2,12.6-8.2c4.5,0,8,2.3,10.7,6.9
		c2.7,4.6,4,11.2,4,19.7V208.6z M235.4,174.9c-0.1-0.3-0.2-1.2-0.2-2.5c0-1.6,0.3-2.6,1-2.9c0.8-0.3,1.3-0.9,1.3-1.8V122
		c0-1.8-0.6-2.8-1.7-3.2c-0.5-0.2-0.7-0.6-0.7-1.3v-3c0-1,0.5-1.5,1.6-1.5h12.5c0.9,0,1.3,0.5,1.3,1.5v52.6c0,0.7,0,1.2,0.1,1.4
		c0.1,0.2,0.3,0.4,0.7,0.6c0.9,0.4,1.4,1.4,1.4,2.8c0,1.7-0.1,2.7-0.2,3c-0.1,0.3-0.5,0.5-1.3,0.5h-15.2
		C235.7,175.4,235.5,175.2,235.4,174.9z M259.4,195.2c-1.4,0-2.4-0.9-3.1-2.8c-0.4-1.1-0.9-1.6-1.4-1.6c-1.2,0-1.8,1.5-1.8,4.5v36.5
		c0,1.2,0.5,2,1.4,2.6c0.9,0.5,1.4,1.4,1.4,2.5v2.1c0,0.7-0.1,1.2-0.2,1.4c-0.1,0.2-0.6,0.3-1.2,0.3h-14.8c-1,0-1.5-0.6-1.5-1.7
		v-2.5c0-0.9,0.2-1.4,0.7-1.7c0.9-0.5,1.3-1.3,1.3-2.4v-46c0-1-0.3-1.8-0.9-2.2c-0.7-0.5-1.1-0.8-1.2-1.1c-0.1-0.3-0.2-1-0.2-2.4
		c0-1.1,0.1-1.8,0.4-2.1c0.3-0.3,0.7-0.4,1.4-0.4h10.6c0.5,0,0.8,0.2,1,0.5c0.2,0.3,0.3,1.1,0.3,2.3v9.4c0.3-0.7,0.7-2,1.1-3.8
		c1-4,2-6.4,2.9-7.4c1-1,2-1.5,3.2-1.5c1.6,0,2.8,0.9,3.6,2.6c0.8,1.7,1.2,3.9,1.2,6.5C263.5,192.4,262.2,195.2,259.4,195.2z
		 M296.8,208.6h-17.6v18.7c0,2.5,0.4,4.4,1.2,5.8c0.8,1.4,1.9,2.1,3.2,2.1c2,0,3.6-1,4.8-2.9c1.2-2,1.8-4.7,1.9-8.1
		c0-1.8,0.2-2.9,0.5-3.3c0.3-0.4,1.2-0.5,2.8-0.5c1.4,0,2.3,0.2,2.7,0.5c0.4,0.3,0.6,1.2,0.6,2.5c0,4.7-1.3,8.9-3.9,12.5
		c-2.6,3.7-6.1,5.5-10.4,5.5c-5,0-9.2-2.6-12.6-7.8c-3.5-5.2-5.2-13.1-5.2-23.6s1.6-18.5,4.8-24c3.2-5.5,7.4-8.2,12.6-8.2
		c4.5,0,8,2.3,10.7,6.9c2.7,4.6,4,11.2,4,19.7V208.6z M321.5,237.3c-1.8,2.7-3.9,4-6.3,4c-1.5,0-3.1-0.6-4.8-1.9
		c-0.9-0.7-1.5-1.1-1.8-1.1c-0.4,0-0.6,0.4-0.6,1.1c-0.1,0.8-0.3,1.3-0.5,1.6c-0.2,0.2-0.9,0.3-2,0.3c-0.9,0-1.5-0.2-1.7-0.5
		c-0.3-0.3-0.4-0.8-0.5-1.6l-2-12.8c-0.1-0.6-0.1-1-0.1-1.1c0-0.9,0.9-1.3,2.6-1.3c0.9,0,1.6,0.1,1.9,0.4c0.4,0.3,0.8,1.1,1.4,2.4
		c2,5,4,7.4,5.8,7.4c1.2,0,1.8-0.8,1.8-2.5c0-1.5-0.4-3.3-1.3-5.4c-0.9-2.2-2.6-5.7-5.1-10.6c-2.7-5.2-4.6-9.6-5.8-13.2
		c-1.2-3.5-1.8-7.1-1.8-10.6c0-4.8,0.9-8.4,2.7-10.8c1.8-2.4,3.9-3.6,6.5-3.6c1.3,0,2.9,0.5,4.6,1.6c0.9,0.5,1.5,0.8,1.8,0.8
		c0.4,0,0.7-0.3,0.7-1c0.1-0.7,0.3-1.1,0.6-1.2c0.3-0.2,1-0.2,2-0.2c0.7,0,1.1,0.1,1.3,0.3c0.2,0.2,0.4,0.6,0.5,1.4l2.2,12.7
		c0.1,0.4,0.1,0.7,0.1,1.1c0,0.9-0.7,1.3-2.1,1.3c-0.9,0-1.6-0.1-2.1-0.4c-0.4-0.3-0.9-1-1.5-2.2c-0.6-1.4-1.6-3.1-2.9-5
		c-1.3-1.9-2.4-2.9-3.5-2.9c-0.4,0-0.7,0.2-1,0.6c-0.3,0.4-0.5,0.9-0.5,1.5c0,1.6,1.9,5.9,5.7,13.2c3.3,6.3,5.5,11.2,6.7,14.8
		c1.2,3.6,1.8,7.6,1.8,12.1C324.1,231,323.3,234.7,321.5,237.3z M343.6,240.7h-15.2c-0.4-0.1-0.6-0.3-0.7-0.6
		c-0.1-0.3-0.2-1.2-0.2-2.5c0-1.6,0.3-2.6,1-2.9c0.8-0.3,1.3-0.9,1.3-1.8v-45.6c0-1.8-0.6-2.8-1.7-3.2c-0.5-0.2-0.7-0.6-0.7-1.3v-3
		c0-1,0.5-1.5,1.6-1.5h12.5c0.9,0,1.3,0.5,1.3,1.5v52.6c0,0.7,0,1.2,0.1,1.4c0.1,0.2,0.3,0.4,0.7,0.6c0.9,0.4,1.4,1.4,1.4,2.8
		c0,1.7-0.1,2.7-0.2,3C344.7,240.5,344.3,240.7,343.6,240.7z"/>
	<path d="M219,183.4c-1.8,0-2.7,1.4-2.7,4.3v15.1h5.3v-15.1C221.6,184.9,220.7,183.4,219,183.4z"/>
	<path d="M86.5,151.6c0.9,0,1.6-0.4,2.2-1.3c0.6-0.9,0.8-2,0.8-3.5v-22.3c0-4-0.9-5.9-2.8-5.9c-0.9,0-1.7,0.6-2.2,1.9
		c-0.5,1.3-0.8,2.6-0.8,4v22.7c0,1.2,0.3,2.3,0.8,3.1C85,151.1,85.7,151.6,86.5,151.6z"/>
	<path d="M184.3,170c2.1,0,3.1-2.3,3.1-6.9v-39.3c0-3.8-0.9-5.7-2.8-5.7c-2,0-3.1,2.3-3.1,6.9v38C181.5,167.7,182.5,170,184.3,170z"
		/>
	<path d="M180.2,185.8c-0.6,0-1.2,0.4-1.9,1.2c-0.7,0.8-1,1.7-1,2.7V228c0,0.8,0.4,1.7,1.1,2.6s1.6,1.4,2.6,1.4
		c1.6,0,2.4-1.4,2.4-4.3v-36.3c0-1.9-0.3-3.3-1-4.2C181.7,186.2,181,185.8,180.2,185.8z"/>
	<path d="M281.9,183.4c-1.8,0-2.7,1.4-2.7,4.3v15.1h5.3v-15.1C284.5,184.9,283.6,183.4,281.9,183.4z"/>
	
		<image style="overflow:visible;" width="225" height="225" xlink:href="2B4CDC9D.jpg"  transform="matrix(0.2302 0 0 0.2533 263.5159 112.9948)">
	</image>
</g>
</svg>
